# WaveFront *.obj file (generated by Cinema 4D)

v 0 0 12.5
v 0 75 12.5
v 25 0 12.5
v 25 75 12.5
v 25 0 -12.5
v 25 75 -12.5
v 0 0 -12.5
v 0 75 -12.5
# 8 vertices

vn 0 0 1
vn 1 0 0
vn 0 0 -1
vn -1 0 0
vn 0 1 0
vn 0 -1 0
# 6 normals

vt 0.31244999170303 -0.00012969970703 0
vt 0.31244999170303 0.18737030029297 0
vt 0.37494999170303 0.18737030029297 0
vt 0.37494999170303 -0.00012969970703 0
vt 0.37496998906136 -0.00012969970703 0
vt 0.37496998906136 0.18737030029297 0
vt 0.43746998906136 0.18737030029297 0
vt 0.43746998906136 -0.00012969970703 0
vt 0.43748998641968 -0.00012969970703 0
vt 0.43748998641968 0.18737030029297 0
vt 0.49998998641968 0.18737030029297 0
vt 0.49998998641968 -0.00012969970703 0
vt 0.24992999434471 -0.00012969970703 0
vt 0.24992999434471 0.18737030029297 0
vt 0.31242999434471 0.18737030029297 0
vt 0.31242999434471 -0.00012969970703 0
vt 0.31244999170303 0.18741035461426 0
vt 0.31244999170303 0.24991023540497 0
vt 0.37494999170303 0.24991023540497 0
vt 0.37494999170303 0.18741035461426 0
vt 0.37496998906136 0.18741035461426 0
vt 0.37496998906136 0.24991023540497 0
vt 0.43746998906136 0.24991023540497 0
vt 0.43746998906136 0.18741035461426 0
# 24 texture coordinates

o l_leg
usemtl default
f 3/4/1 4/3/1 2/2/1 1/1/1
f 5/8/2 6/7/2 4/6/2 3/5/2
f 7/12/3 8/11/3 6/10/3 5/9/3
f 1/16/4 2/15/4 8/14/4 7/13/4
f 4/20/5 6/19/5 8/18/5 2/17/5
f 5/24/6 3/23/6 1/22/6 7/21/6

v -0.625 -1.875 13.125
v -0.625 76.875 13.125
v 25.625 -1.875 13.125
v 25.625 76.875 13.125
v 25.625 -1.875 -13.125
v 25.625 76.875 -13.125
v -0.625 -1.875 -13.125
v -0.625 76.875 -13.125
# 8 vertices

vn -1 0 0
# 1 normal

vt 0.06236999109387 -0.00012969970703 0
vt 0.06236999109387 0.18737030029297 0
vt 0.12486999481916 0.18737030029297 0
vt 0.12486999481916 -0.00012969970703 0
vt 0.12488999217749 -0.00012969970703 0
vt 0.12488999217749 0.18737030029297 0
vt 0.18738998472691 0.18737030029297 0
vt 0.18738998472691 -0.00012969970703 0
vt 0.18740998208523 -0.00012969970703 0
vt 0.18740998208523 0.18737030029297 0
vt 0.24990998208523 0.18737030029297 0
vt 0.24990998208523 -0.00012969970703 0
vt -0.00015000565327 -0.00012969970703 0
vt -0.00015000565327 0.18737030029297 0
vt 0.06234999373555 0.18737030029297 0
vt 0.06234999373555 -0.00012969970703 0
vt 0.06236999109387 0.18741035461426 0
vt 0.06236999109387 0.24991023540497 0
vt 0.12486999481916 0.24991023540497 0
vt 0.12486999481916 0.18741035461426 0
vt 0.12488999217749 0.18741035461426 0
vt 0.12488999217749 0.24991023540497 0
vt 0.18738998472691 0.24991023540497 0
vt 0.18738998472691 0.18741035461426 0
# 24 texture coordinates

o l_layer
usemtl default
f 11/28/1 12/27/1 10/26/1 9/25/1
f 13/32/2 14/31/2 12/30/2 11/29/2
f 15/36/3 16/35/3 14/34/3 13/33/3
f 9/40/7 10/39/7 16/38/7 15/37/7
f 12/44/5 14/43/5 16/42/5 10/41/5
f 13/48/6 11/47/6 9/46/6 15/45/6

v -25 0 12.5
v -25 75 12.5
v 0 0 12.5
v 0 75 12.5
v 0 0 -12.5
v 0 75 -12.5
v -25 0 -12.5
v -25 75 -12.5
# 8 vertices

# 0 normal

vt 0.06236999854445 0.50003004074097 0
vt 0.06236999854445 0.68753004074097 0
vt 0.12487000226974 0.68753004074097 0
vt 0.12487000226974 0.50003004074097 0
vt 0.12488999962807 0.50003004074097 0
vt 0.12488999962807 0.68753004074097 0
vt 0.18738999962807 0.68753004074097 0
vt 0.18738999962807 0.50003004074097 0
vt 0.18740999698639 0.50003004074097 0
vt 0.18740999698639 0.68753004074097 0
vt 0.24990999698639 0.68753004074097 0
vt 0.24990999698639 0.50003004074097 0
vt -0.00015000146232 0.50003004074097 0
vt -0.00015000146232 0.68753004074097 0
vt 0.06235000118613 0.68753004074097 0
vt 0.06235000118613 0.50003004074097 0
vt 0.06237000226974 0.68757003545761 0
vt 0.06237000226974 0.75007003545761 0
vt 0.12486999481916 0.75007003545761 0
vt 0.12486999481916 0.68757003545761 0
vt 0.12488999962807 0.68757003545761 0
vt 0.12488999962807 0.75007003545761 0
vt 0.18738999962807 0.75007003545761 0
vt 0.18738999962807 0.68757003545761 0
# 24 texture coordinates

o r_leg
usemtl default
f 19/52/1 20/51/1 18/50/1 17/49/1
f 21/56/2 22/55/2 20/54/2 19/53/2
f 23/60/3 24/59/3 22/58/3 21/57/3
f 17/64/7 18/63/7 24/62/7 23/61/7
f 20/68/5 22/67/5 24/66/5 18/65/5
f 21/72/6 19/71/6 17/70/6 23/69/6

v -25.625 -1.875 13.125
v -25.625 76.875 13.125
v 0.625 -1.875 13.125
v 0.625 76.875 13.125
v 0.625 -1.875 -13.125
v 0.625 76.875 -13.125
v -25.625 -1.875 -13.125
v -25.625 76.875 -13.125
# 8 vertices

# 0 normal

vt 0.06236999854445 0.24995005130768 0
vt 0.06236999854445 0.43745005130768 0
vt 0.12487000226974 0.43745005130768 0
vt 0.12487000226974 0.24995005130768 0
vt 0.12488999962807 0.24995005130768 0
vt 0.12488999962807 0.43745005130768 0
vt 0.18738999962807 0.43745005130768 0
vt 0.18738999962807 0.24995005130768 0
vt 0.18740999698639 0.24995005130768 0
vt 0.18740999698639 0.43745005130768 0
vt 0.24990999698639 0.43745005130768 0
vt 0.24990999698639 0.24995005130768 0
vt -0.00015000146232 0.24995005130768 0
vt -0.00015000146232 0.43745005130768 0
vt 0.06235000118613 0.43745005130768 0
vt 0.06235000118613 0.24995005130768 0
vt 0.06237000226974 0.43749010562897 0
vt 0.06237000226974 0.49999010562897 0
vt 0.12486999481916 0.49999010562897 0
vt 0.12486999481916 0.43749010562897 0
vt 0.12488999962807 0.43749010562897 0
vt 0.12488999962807 0.49999010562897 0
vt 0.18738999962807 0.49999010562897 0
vt 0.18738999962807 0.43749010562897 0
# 24 texture coordinates

o r_layer
usemtl default
f 27/76/1 28/75/1 26/74/1 25/73/1
f 29/80/2 30/79/2 28/78/2 27/77/2
f 31/84/3 32/83/3 30/82/3 29/81/3
f 25/88/7 26/87/7 32/86/7 31/85/7
f 28/92/5 30/91/5 32/90/5 26/89/5
f 29/96/6 27/95/6 25/94/6 31/93/6

v -25 150 12.5
v 25 150 12.5
v 25 75 -12.5
v 25 150 -12.5
v -25 150 -12.5
# 5 vertices

# 0 normal

vt 0.31246000528336 0.50002998113632 0
vt 0.31246000528336 0.68752998113632 0
vt 0.43746000528336 0.68752998113632 0
vt 0.43746000528336 0.50002998113632 0
vt 0.43748998641968 0.50003004074097 0
vt 0.43748998641968 0.68753004074097 0
vt 0.49998998641968 0.68753004074097 0
vt 0.49998998641968 0.50003004074097 0
vt 0.50002002716064 0.50002998113632 0
vt 0.50002002716064 0.68752998113632 0
vt 0.62502002716064 0.68752998113632 0
vt 0.62502002716064 0.50002998113632 0
vt 0.24992997944355 0.50003004074097 0
vt 0.24992997944355 0.68753004074097 0
vt 0.31242999434471 0.68753004074097 0
vt 0.31242999434471 0.50003004074097 0
vt 0.31245997548103 0.68757003545761 0
vt 0.31245997548103 0.75006997585297 0
vt 0.43745997548103 0.75006997585297 0
vt 0.43745997548103 0.68757003545761 0
vt 0.43749997019768 0.68757003545761 0
vt 0.43749997019768 0.75006997585297 0
vt 0.5625 0.75006997585297 0
vt 0.5625 0.68757003545761 0
# 24 texture coordinates

o torso
usemtl default
f 4/100/1 34/99/1 33/98/1 18/97/1
f 35/104/2 36/103/2 34/102/2 4/101/2
f 24/108/3 37/107/3 36/106/3 35/105/3
f 18/112/7 33/111/7 37/110/7 24/109/7
f 34/116/5 36/115/5 37/114/5 33/113/5
f 35/120/6 4/119/6 18/118/6 24/117/6

v -27.5625 71.15625 13.78125
v -27.5625 153.84375 13.78125
v 27.5625 71.15625 13.78125
v 27.5625 153.84375 13.78125
v 27.5625 71.15625 -13.78125
v 27.5625 153.84375 -13.78125
v -27.5625 71.15625 -13.78125
v -27.5625 153.84375 -13.78125
# 8 vertices

# 0 normal

vt 0.31246000528336 0.24995005130768 0
vt 0.31246000528336 0.43745005130768 0
vt 0.43746000528336 0.43745005130768 0
vt 0.43746000528336 0.24995005130768 0
vt 0.43748998641968 0.24995005130768 0
vt 0.43748998641968 0.43745005130768 0
vt 0.49998998641968 0.43745005130768 0
vt 0.49998998641968 0.24995005130768 0
vt 0.50002002716064 0.24995005130768 0
vt 0.50002002716064 0.43745005130768 0
vt 0.62502002716064 0.43745005130768 0
vt 0.62502002716064 0.24995005130768 0
vt 0.24992997944355 0.24995005130768 0
vt 0.24992997944355 0.43745005130768 0
vt 0.31242999434471 0.43745005130768 0
vt 0.31242999434471 0.24995005130768 0
vt 0.31245997548103 0.43749010562897 0
vt 0.31245997548103 0.49998998641968 0
vt 0.43745997548103 0.49998998641968 0
vt 0.43745997548103 0.43749010562897 0
vt 0.43749997019768 0.43749010562897 0
vt 0.43749997019768 0.49998998641968 0
vt 0.5625 0.49998998641968 0
vt 0.5625 0.43749010562897 0
# 24 texture coordinates

o torso_layer
usemtl default
f 40/124/1 41/123/1 39/122/1 38/121/1
f 42/128/2 43/127/2 41/126/2 40/125/2
f 44/132/3 45/131/3 43/130/3 42/129/3
f 38/136/7 39/135/7 45/134/7 44/133/7
f 41/140/5 43/139/5 45/138/5 39/137/5
f 42/144/6 40/143/6 38/142/6 44/141/6

v 43.75 75 12.5
v 43.75 150 12.5
v 43.75 75 -12.5
v 43.75 150 -12.5
# 4 vertices

# 0 normal

vt 0.56252747774124 -0.00012993812561 0
vt 0.56252747774124 0.18737006187439 0
vt 0.60940247774124 0.18737006187439 0
vt 0.60940247774124 -0.00012993812561 0
vt 0.60942000150681 -0.00012993812561 0
vt 0.60942000150681 0.18737006187439 0
vt 0.67192000150681 0.18737006187439 0
vt 0.67192000150681 -0.00012993812561 0
vt 0.67193746566772 -0.00012946128845 0
vt 0.67193746566772 0.18737006187439 0
vt 0.71881246566772 0.18737006187439 0
vt 0.71881246566772 -0.00012946128845 0
vt 0.50001001358032 -0.00012993812561 0
vt 0.50001001358032 0.18737006187439 0
vt 0.56251001358032 0.18737006187439 0
vt 0.56251001358032 -0.00012993812561 0
vt 0.56252747774124 0.18741011619568 0
vt 0.56252747774124 0.24991011619568 0
vt 0.60940247774124 0.24991011619568 0
vt 0.60940247774124 0.18741011619568 0
vt 0.60941749811172 0.18741011619568 0
vt 0.60941749811172 0.24991011619568 0
vt 0.65629249811172 0.24991011619568 0
vt 0.65629249811172 0.18741011619568 0
# 24 texture coordinates

o l_arm
usemtl default
f 46/148/1 47/147/1 34/146/1 4/145/1
f 48/152/2 49/151/2 47/150/2 46/149/2
f 35/156/3 36/155/3 49/154/3 48/153/3
f 4/160/7 34/159/7 36/158/7 35/157/7
f 47/164/5 49/163/5 36/162/5 34/161/5
f 48/168/6 46/167/6 4/166/6 35/165/6

v 24.53125 73.125 13.125
v 24.53125 151.875 13.125
v 44.21875 73.125 13.125
v 44.21875 151.875 13.125
v 44.21875 73.125 -13.125
v 44.21875 151.875 -13.125
v 24.53125 73.125 -13.125
v 24.53125 151.875 -13.125
# 8 vertices

# 0 normal

vt 0.81260746717453 -0.00012993812561 0
vt 0.81260746717453 0.18737006187439 0
vt 0.85948246717453 0.18737006187439 0
vt 0.85948246717453 -0.00012993812561 0
vt 0.85949999094009 -0.00012993812561 0
vt 0.85949999094009 0.18737006187439 0
vt 0.92199999094009 0.18737006187439 0
vt 0.92199999094009 -0.00012993812561 0
vt 0.92201745510101 -0.00012946128845 0
vt 0.92201745510101 0.18737006187439 0
vt 0.96889245510101 0.18737006187439 0
vt 0.96889245510101 -0.00012946128845 0
vt 0.75009000301361 -0.00012993812561 0
vt 0.75009000301361 0.18737006187439 0
vt 0.81259000301361 0.18737006187439 0
vt 0.81259000301361 -0.00012993812561 0
vt 0.81260746717453 0.18741011619568 0
vt 0.81260746717453 0.24991011619568 0
vt 0.85948246717453 0.24991011619568 0
vt 0.85948246717453 0.18741011619568 0
vt 0.85949748754501 0.18741011619568 0
vt 0.85949748754501 0.24991011619568 0
vt 0.90637248754501 0.24991011619568 0
vt 0.90637248754501 0.18741011619568 0
# 24 texture coordinates

o l_layer_1
usemtl default
f 52/172/1 53/171/1 51/170/1 50/169/1
f 54/176/2 55/175/2 53/174/2 52/173/2
f 56/180/3 57/179/3 55/178/3 54/177/3
f 50/184/7 51/183/7 57/182/7 56/181/7
f 53/188/5 55/187/5 57/186/5 51/185/5
f 54/192/6 52/191/6 50/190/6 56/189/6

v -43.75 75 12.5
v -43.75 150 12.5
v -43.75 75 -12.5
v -43.75 150 -12.5
# 4 vertices

# 0 normal

vt 0.68756747245789 0.50003004074097 0
vt 0.68756747245789 0.68753004074097 0
vt 0.73444247245789 0.68753004074097 0
vt 0.73444247245789 0.50003004074097 0
vt 0.73445999622345 0.50003004074097 0
vt 0.73445999622345 0.68753004074097 0
vt 0.79695999622345 0.68753004074097 0
vt 0.79695999622345 0.50003004074097 0
vt 0.79697746038437 0.50003004074097 0
vt 0.79697746038437 0.68753004074097 0
vt 0.84385246038437 0.68753004074097 0
vt 0.84385246038437 0.50003004074097 0
vt 0.62505000829697 0.50003004074097 0
vt 0.62505000829697 0.68753004074097 0
vt 0.68755000829697 0.68753004074097 0
vt 0.68755000829697 0.50003004074097 0
vt 0.68756747245789 0.68757003545761 0
vt 0.68756747245789 0.75007003545761 0
vt 0.73444247245789 0.75007003545761 0
vt 0.73444247245789 0.68757003545761 0
vt 0.73445749282837 0.68757003545761 0
vt 0.73445749282837 0.75007003545761 0
vt 0.78133249282837 0.75007003545761 0
vt 0.78133249282837 0.68757003545761 0
# 24 texture coordinates

o r_arm
usemtl default
f 18/196/1 33/195/1 59/194/1 58/193/1
f 24/200/2 37/199/2 33/198/2 18/197/2
f 60/204/3 61/203/3 37/202/3 24/201/3
f 58/208/7 59/207/7 61/206/7 60/205/7
f 33/212/5 37/211/5 61/210/5 59/209/5
f 24/216/6 18/215/6 58/214/6 60/213/6

v -44.21875 73.125 13.125
v -44.21875 151.875 13.125
v -24.53125 73.125 13.125
v -24.53125 151.875 13.125
v -24.53125 73.125 -13.125
v -24.53125 151.875 -13.125
v -44.21875 73.125 -13.125
v -44.21875 151.875 -13.125
# 8 vertices

# 0 normal

vt 0.68756747245789 0.24995005130768 0
vt 0.68756747245789 0.43745005130768 0
vt 0.73444247245789 0.43745005130768 0
vt 0.73444247245789 0.24995005130768 0
vt 0.73445999622345 0.24995005130768 0
vt 0.73445999622345 0.43745005130768 0
vt 0.79695999622345 0.43745005130768 0
vt 0.79695999622345 0.24995005130768 0
vt 0.79697746038437 0.24995005130768 0
vt 0.79697746038437 0.43745005130768 0
vt 0.84385246038437 0.43745005130768 0
vt 0.84385246038437 0.24995005130768 0
vt 0.62505000829697 0.24995005130768 0
vt 0.62505000829697 0.43745005130768 0
vt 0.68755000829697 0.43745005130768 0
vt 0.68755000829697 0.24995005130768 0
vt 0.68756747245789 0.43749010562897 0
vt 0.68756747245789 0.49999010562897 0
vt 0.73444247245789 0.49999010562897 0
vt 0.73444247245789 0.43749010562897 0
vt 0.73445749282837 0.43749010562897 0
vt 0.73445749282837 0.49999010562897 0
vt 0.78133249282837 0.49999010562897 0
vt 0.78133249282837 0.43749010562897 0
# 24 texture coordinates

o r_layer_1
usemtl default
f 64/220/1 65/219/1 63/218/1 62/217/1
f 66/224/2 67/223/2 65/222/2 64/221/2
f 68/228/3 69/227/3 67/226/3 66/225/3
f 62/232/7 63/231/7 69/230/7 68/229/7
f 65/236/5 67/235/5 69/234/5 63/233/5
f 66/240/6 64/239/6 62/238/6 68/237/6

v -25 150 25
v -25 200 25
v 25 150 25
v 25 200 25
v 25 150 -25
v 25 200 -25
v -25 150 -25
v -25 200 -25
# 8 vertices

# 0 normal

vt 0.12489999085665 0.75010001659393 0
vt 0.12489999085665 0.87510001659393 0
vt 0.24989999830723 0.87510001659393 0
vt 0.24989999830723 0.75010001659393 0
vt 0.24993999302387 0.75010001659393 0
vt 0.24993999302387 0.87510001659393 0
vt 0.37494000792503 0.87510001659393 0
vt 0.37494000792503 0.75010001659393 0
vt 0.37498000264168 0.75010001659393 0
vt 0.37498000264168 0.87510001659393 0
vt 0.49998000264168 0.87510001659393 0
vt 0.49998000264168 0.75010001659393 0
vt -0.00014000914234 0.75010001659393 0
vt -0.00014000914234 0.87510001659393 0
vt 0.12485999614 0.87510001659393 0
vt 0.12485999614 0.75010001659393 0
vt 0.12489999085665 0.87514007091522 0
vt 0.12489999085665 1.00013995170593 0
vt 0.24989998340607 1.00013995170593 0
vt 0.24989998340607 0.87514007091522 0
vt 0.24993999302387 1.00013995170593 0
vt 0.24993999302387 0.87514007091522 0
vt 0.37494000792503 0.87514007091522 0
vt 0.37494000792503 1.00013995170593 0
# 24 texture coordinates

o head
usemtl default
f 72/244/1 73/243/1 71/242/1 70/241/1
f 74/248/2 75/247/2 73/246/2 72/245/2
f 76/252/3 77/251/3 75/250/3 74/249/3
f 70/256/7 71/255/7 77/254/7 76/253/7
f 73/260/5 75/259/5 77/258/5 71/257/5
f 74/264/6 72/263/6 70/262/6 76/261/6

v -26.25 148.75 26.25
v -26.25 201.25 26.25
v 26.25 148.75 26.25
v 26.25 201.25 26.25
v 26.25 148.75 -26.25
v 26.25 201.25 -26.25
v -26.25 148.75 -26.25
v -26.25 201.25 -26.25
# 8 vertices

# 0 normal

vt 0.62505996227264 0.75010001659393 0
vt 0.62505996227264 0.87510001659393 0
vt 0.75006002187729 0.87510001659393 0
vt 0.75006002187729 0.75010001659393 0
vt 0.75010001659393 0.75010001659393 0
vt 0.75010001659393 0.87510001659393 0
vt 0.87510001659393 0.87510001659393 0
vt 0.87510001659393 0.75010001659393 0
vt 0.87514001131058 0.75010001659393 0
vt 0.87514001131058 0.87510001659393 0
vt 1.00013995170593 0.87510001659393 0
vt 1.00013995170593 0.75010001659393 0
vt 0.500019967556 0.75010001659393 0
vt 0.500019967556 0.87510001659393 0
vt 0.625019967556 0.87510001659393 0
vt 0.625019967556 0.75010001659393 0
vt 0.62505996227264 0.87514007091522 0
vt 0.62505996227264 1.00013995170593 0
vt 0.75005996227264 1.00013995170593 0
vt 0.75005996227264 0.87514007091522 0
vt 0.75010001659393 1.00013995170593 0
vt 0.75010001659393 0.87514007091522 0
vt 0.87510001659393 0.87514007091522 0
vt 0.87510001659393 1.00013995170593 0
# 24 texture coordinates

o layer
usemtl default
f 80/268/1 81/267/1 79/266/1 78/265/1
f 82/272/2 83/271/2 81/270/2 80/269/2
f 84/276/3 85/275/3 83/274/3 82/273/3
f 78/280/7 79/279/7 85/278/7 84/277/7
f 81/284/5 83/283/5 85/282/5 79/281/5
f 82/288/6 80/287/6 78/286/6 84/285/6

